<?xml version="1.0" encoding="iso-8859-1"?>
<!-- Generator: Adobe Illustrator 17.0.0, SVG Export Plug-In . SVG Version: 6.00 Build 0)  -->
<!DOCTYPE svg PUBLIC "-//W3C//DTD SVG 1.1//EN" "http://www.w3.org/Graphics/SVG/1.1/DTD/svg11.dtd">
<svg version="1.1" id="Layer_1" xmlns="http://www.w3.org/2000/svg" xmlns:xlink="http://www.w3.org/1999/xlink" x="0px" y="0px"
	 width="556px" height="96.62px" viewBox="0 0 556 96.62" fill="#333333" style="enable-background:new 0 0 556 96.62;" xml:space="preserve">
<g transform="translate(-28,-20)">
	<path d="M101.56,57.396c-14.422,0-25.723,11.517-25.723,25.94c0,14.421,10.87,26.045,26.261,26.045
		c10.332,0,19.051-5.273,22.064-13.237h-5.274c-2.583,5.38-9.148,8.933-16.683,8.933c-12.377,0-20.772-8.933-21.525-19.913h44.343
		v-0.215l0.753,0.215v-1.723C125.668,68.481,115.767,57.396,101.56,57.396z M80.68,81.184c0.969-10.87,9.686-19.698,20.879-19.698
		c11.086,0,18.62,8.503,19.481,19.698H80.68z"/>
	<path d="M181.767,78.922c0-13.562-8.503-21.741-20.557-21.741c-7.964,0-14.961,3.121-19.589,8.289V31.459h-15.714v4.412h10.87
		v67.592h-10.87v4.412h26.584v-4.412h-10.87V71.602c4.305-6.349,11.624-10.007,18.942-10.007c9.687,0,16.468,6.349,16.468,17.434
		v24.432h-10.87v4.412h26.584v-4.412h-10.978V78.922z"/>
	<path d="M227.047,97.003c-14.315,0-25.616-10.546-25.616-25.721c0-15.177,11.194-25.725,25.508-25.725
		c11.408,0,21.095,6.456,23.893,17.544h12.055V34.687h-12.055v7.535c-5.919-5.92-14.529-9.043-24.647-9.043
		c-20.557,0-38.316,16.038-38.316,38.103c0,22.061,18.082,38.099,39.177,38.099c18.189,0,33.042-11.839,36.379-29.92h-13.346
		C247.388,90.547,238.348,97.003,227.047,97.003z"/>
	<path d="M295.61,55.783c-15.498,0-27.553,11.3-27.553,26.689c0,15.499,12.055,27.016,27.553,27.016
		c15.392,0,27.553-11.517,27.553-27.016C323.163,67.083,311.002,55.783,295.61,55.783z M295.719,98.187
		c-8.826,0-15.176-6.996-15.176-15.714c0-8.609,6.35-15.389,15.176-15.389c8.61,0,15.066,6.781,15.066,15.389
		C310.785,91.191,304.329,98.187,295.719,98.187z"/>
	<path d="M355.586,55.783c-15.499,0-27.553,11.3-27.553,26.689c0,15.499,12.054,27.016,27.553,27.016
		c15.389,0,27.553-11.517,27.553-27.016C383.139,67.083,370.976,55.783,355.586,55.783z M355.694,98.187
		c-8.826,0-15.175-6.996-15.175-15.714c0-8.609,6.349-15.389,15.175-15.389c8.611,0,15.067,6.781,15.067,15.389
		C370.761,91.191,364.305,98.187,355.694,98.187z"/>
	<path d="M505.01,55.783c-15.499,0-26.584,11.515-26.584,26.689c0,15.07,10.87,27.016,27.121,27.016
		c11.624,0,21.096-6.349,24.003-15.714h-13.24c-1.937,3.123-5.488,4.736-10.331,4.736c-8.718,0-13.454-4.844-15.07-11.195h39.07
		h0.107c0.324-1.937,0.324-3.875,0.324-5.703C530.411,66.329,519.862,55.783,505.01,55.783z M490.909,77.524
		c1.615-6.566,6.459-11.949,14.423-11.949c7.642,0,12.161,5.058,13.24,11.949H490.909z"/>
	<path d="M568.279,77.739l-10.224-1.723c-5.919-1.076-7.75-3.228-7.75-5.92c0-2.799,2.26-5.273,7.964-5.273
		c6.351,0,9.472,3.013,13.669,7.642h11.193V56.752h-11.193v3.336c-3.121-3.013-7.642-4.736-13.884-4.736
		c-11.839,0-20.772,5.38-20.772,15.607c0,9.472,7.75,14.101,18.727,16.038l9.255,1.506c4.629,0.861,6.566,3.013,6.566,5.81
		c0,2.691-1.83,5.492-8.396,5.492c-7.857,0-12.269-4.092-16.79-9.472l-0.107,0.107l-11.3-0.107v17.542h11.3v-4.626
		c3.982,3.336,10.009,6.242,18.298,6.242c12.376,0,19.589-6.349,19.589-15.929C584.424,83.441,576.353,79.137,568.279,77.739z"/>
	<path d="M462.641,48.419c4.626,0,8.396-3.551,8.396-8.18c0-4.735-3.77-8.286-8.396-8.286c-4.736,0-8.504,3.551-8.504,8.286
		C454.137,44.867,457.905,48.419,462.641,48.419z"/>
	<path d="M473.454,57.03h-20.449v5.745c3.125,1.236,5.877,3.191,8.069,5.663h0.001v0.001c3.317,3.742,5.348,8.65,5.348,14.044
		s-2.031,10.302-5.348,14.044v0h0c-2.192,2.473-4.945,4.428-8.07,5.664v5.745h24.059v-11.41h-3.61V57.03z"/>
	<circle cx="438.158" cy="91.043" r="2.44"/>
	<circle cx="454.805" cy="85.899" r="2.704"/>
	<circle cx="449.034" cy="75.34" r="2.101"/>
	<polygon points="62.813,39.315 87.675,39.315 87.675,44.709 92.303,44.709 92.411,34.687 28.479,34.687 28.479,54.275
		33.107,54.275 33.107,39.315 57.862,39.315 57.862,103.462 43.548,103.462 43.548,107.873 77.342,107.873 77.342,103.462
		62.813,103.462 	"/>
	<path d="M431.581,57.022l-30.343,23.582V31.522h-20.447v11.417h8.071v53.598h-5.346v11.393h22.518V96.536h-4.796v-2.807
		l10.06-8.095l18.716,22.295h13.569v-4.317c-10.951-0.839-19.558-9.969-19.558-21.137c0-0.472,0.025-0.944,0.062-1.414
		c0.21,0.03,0.419,0.069,0.632,0.069c1.24,0,2.386-0.515,3.205-1.334c0.814-0.814,1.325-1.929,1.331-3.183
		c1.06,0.559,2.265,0.879,3.547,0.879c4.208,0,7.619-3.411,7.619-7.619c0-1.063-0.219-2.074-0.612-2.994
		c2.146-0.443,3.759-2.341,3.763-4.618h0.011v-2.573v-2.667h-11.814H431.581z"/>
</g>
</svg>
